<?xml version="1.0" encoding="us-ascii" standalone="no"?><svg xmlns="http://www.w3.org/2000/svg" xmlns:xlink="http://www.w3.org/1999/xlink" contentStyleType="text/css" height="858px" preserveAspectRatio="none" style="width:764px;height:858px;background:#FFFFFF;" version="1.1" viewBox="0 0 764 858" width="764px" zoomAndPan="magnify"><defs/><g><text fill="#000000" font-family="sans-serif" font-size="14" font-weight="bold" lengthAdjust="spacing" textLength="105" x="322.5" y="23.5352">Class Diagram</text><!--cluster provider--><g id="cluster_provider"><path d="M342.5,43.4883 L403.5,43.4883 A3.75,3.75 0 0 1 406,45.9883 L413,65.9766 L635.5,65.9766 A2.5,2.5 0 0 1 638,68.4766 L638,354.4583 A2.5,2.5 0 0 1 635.5,356.9583 L342.5,356.9583 A2.5,2.5 0 0 1 340,354.4583 L340,45.9883 A2.5,2.5 0 0 1 342.5,43.4883 " fill="none" style="stroke:#000000;stroke-width:1.5;"/><line style="stroke:#000000;stroke-width:1.5;" x1="340" x2="413" y1="65.9766" y2="65.9766"/><text fill="#000000" font-family="sans-serif" font-size="14" font-weight="bold" lengthAdjust="spacing" textLength="60" x="344" y="59.0234">provider</text></g><!--cluster observer--><g id="cluster_observer"><path d="M8.5,380.9583 L71.5,380.9583 A3.75,3.75 0 0 1 74,383.4583 L81,403.4466 L754.5,403.4466 A2.5,2.5 0 0 1 757,405.9466 L757,848.8983 A2.5,2.5 0 0 1 754.5,851.3983 L8.5,851.3983 A2.5,2.5 0 0 1 6,848.8983 L6,383.4583 A2.5,2.5 0 0 1 8.5,380.9583 " fill="none" style="stroke:#000000;stroke-width:1.5;"/><line style="stroke:#000000;stroke-width:1.5;" x1="6" x2="81" y1="403.4466" y2="403.4466"/><text fill="#000000" font-family="sans-serif" font-size="14" font-weight="bold" lengthAdjust="spacing" textLength="62" x="10" y="396.4934">observer</text></g><!--cluster topics--><g id="cluster_topics"><path d="M555.5,578.4483 L600.5,578.4483 A3.75,3.75 0 0 1 603,580.9483 L610,600.9366 L730.5,600.9366 A2.5,2.5 0 0 1 733,603.4366 L733,707.9183 A2.5,2.5 0 0 1 730.5,710.4183 L555.5,710.4183 A2.5,2.5 0 0 1 553,707.9183 L553,580.9483 A2.5,2.5 0 0 1 555.5,578.4483 " fill="none" style="stroke:#000000;stroke-width:1.5;"/><line style="stroke:#000000;stroke-width:1.5;" x1="553" x2="610" y1="600.9366" y2="600.9366"/><text fill="#000000" font-family="sans-serif" font-size="14" font-weight="bold" lengthAdjust="spacing" textLength="44" x="557" y="593.9834">topics</text></g><!--class Provider--><g id="elem_Provider"><rect codeLine="5" fill="#F1F1F1" height="97.4648" id="Provider" rx="2.5" ry="2.5" style="stroke:#181818;stroke-width:0.5;" width="266" x="356" y="78.4883"/><ellipse cx="456.25" cy="94.4883" fill="#B4A7E5" rx="11" ry="11" style="stroke:#181818;stroke-width:1.0;"/><path d="M452.6777,90.7534 L452.6777,88.5952 L460.0571,88.5952 L460.0571,90.7534 L457.5918,90.7534 L457.5918,98.8301 L460.0571,98.8301 L460.0571,100.9883 L452.6777,100.9883 L452.6777,98.8301 L455.1431,98.8301 L455.1431,90.7534 Z " fill="#000000"/><text fill="#000000" font-family="sans-serif" font-size="14" font-style="italic" lengthAdjust="spacing" textLength="57" x="476.75" y="99.7793">Provider</text><line style="stroke:#181818;stroke-width:0.5;" x1="357" x2="621" y1="110.4883" y2="110.4883"/><line style="stroke:#181818;stroke-width:0.5;" x1="357" x2="621" y1="118.4883" y2="118.4883"/><text fill="#000000" font-family="sans-serif" font-size="14" font-style="italic" lengthAdjust="spacing" textLength="246" x="362" y="136.0234">RefreshState(context.Context) error</text><text fill="#000000" font-family="sans-serif" font-size="14" font-style="italic" lengthAdjust="spacing" textLength="254" x="362" y="152.5117">PublishEvents(context.Context) error</text><text fill="#000000" font-family="sans-serif" font-size="14" font-style="italic" lengthAdjust="spacing" textLength="139" x="362" y="169">PollingInterval() uint</text></g><!--class RPCProvider--><g id="elem_RPCProvider"><rect codeLine="11" fill="#F1F1F1" height="97.4648" id="RPCProvider" rx="2.5" ry="2.5" style="stroke:#181818;stroke-width:0.5;" width="198" x="390" y="239.9583"/><ellipse cx="442.75" cy="255.9583" fill="#F1F1F1" rx="11" ry="11" style="stroke:#181818;stroke-width:1.0;"/><path d="M442.4834,257.0213 Q440.6323,256.3157 439.9766,255.5396 Q439.3208,254.7635 439.3208,253.4519 Q439.3208,251.7669 440.3999,250.804 Q441.479,249.8411 443.3633,249.8411 Q444.2183,249.8411 445.0732,250.0362 Q445.9282,250.2312 446.7666,250.6131 L446.7666,253.0037 Q445.978,252.4475 445.1646,252.157 Q444.3511,251.8665 443.5542,251.8665 Q442.666,251.8665 442.1929,252.2234 Q441.7197,252.5804 441.7197,253.2444 Q441.7197,253.7591 442.0642,254.0952 Q442.4087,254.4314 443.5044,254.8382 L444.5586,255.2366 Q446.0527,255.7845 446.7583,256.6892 Q447.4639,257.594 447.4639,258.972 Q447.4639,260.8479 446.3557,261.7735 Q445.2476,262.699 443.0063,262.699 Q442.085,262.699 441.1594,262.479 Q440.2339,262.2591 439.3706,261.8274 L439.3706,259.2957 Q440.3501,259.9929 441.2673,260.3333 Q442.1846,260.6736 443.0811,260.6736 Q443.9858,260.6736 444.4839,260.2627 Q444.9819,259.8518 444.9819,259.1131 Q444.9819,258.5569 444.6499,258.1377 Q444.3179,257.7185 443.687,257.4778 Z " fill="#000000"/><text fill="#000000" font-family="sans-serif" font-size="14" lengthAdjust="spacing" textLength="84" x="463.25" y="261.2493">RPCProvider</text><line style="stroke:#181818;stroke-width:0.5;" x1="391" x2="587" y1="271.9583" y2="271.9583"/><text fill="#000000" font-family="sans-serif" font-size="14" lengthAdjust="spacing" textLength="186" x="396" y="289.4934">Network   network.Network</text><text fill="#000000" font-family="sans-serif" font-size="14" lengthAdjust="spacing" textLength="96" x="396" y="305.9817">Label     string</text><text fill="#000000" font-family="sans-serif" font-size="14" lengthAdjust="spacing" textLength="185" x="396" y="322.47">bus       *observer.EventBus</text><line style="stroke:#181818;stroke-width:0.5;" x1="391" x2="587" y1="329.4231" y2="329.4231"/></g><!--class Observer--><g id="elem_Observer"><rect codeLine="26" fill="#F1F1F1" height="97.4648" id="Observer" rx="2.5" ry="2.5" style="stroke:#181818;stroke-width:0.5;" width="277" x="21.5" y="605.1983"/><ellipse cx="124.75" cy="621.1983" fill="#B4A7E5" rx="11" ry="11" style="stroke:#181818;stroke-width:1.0;"/><path d="M121.1777,617.4634 L121.1777,615.3052 L128.5571,615.3052 L128.5571,617.4634 L126.0918,617.4634 L126.0918,625.5401 L128.5571,625.5401 L128.5571,627.6983 L121.1777,627.6983 L121.1777,625.5401 L123.6431,625.5401 L123.6431,617.4634 Z " fill="#000000"/><text fill="#000000" font-family="sans-serif" font-size="14" font-style="italic" lengthAdjust="spacing" textLength="62" x="145.25" y="626.4893">Observer</text><line style="stroke:#181818;stroke-width:0.5;" x1="22.5" x2="297.5" y1="637.1983" y2="637.1983"/><line style="stroke:#181818;stroke-width:0.5;" x1="22.5" x2="297.5" y1="645.1983" y2="645.1983"/><text fill="#000000" font-family="sans-serif" font-size="14" font-style="italic" lengthAdjust="spacing" textLength="228" x="27.5" y="662.7334">Notify(context.Context, Message)</text><text fill="#000000" font-family="sans-serif" font-size="14" font-style="italic" lengthAdjust="spacing" textLength="134" x="27.5" y="679.2217">Register(*EventBus)</text><text fill="#000000" font-family="sans-serif" font-size="14" font-style="italic" lengthAdjust="spacing" textLength="265" x="27.5" y="695.71">GetCollectors() []prometheus.Collector</text></g><!--class Message--><g id="elem_Message"><rect codeLine="32" fill="#F1F1F1" height="113.9531" id="Message" rx="2.5" ry="2.5" style="stroke:#181818;stroke-width:0.5;" width="200" x="334" y="596.9583"/><ellipse cx="400.25" cy="612.9583" fill="#B4A7E5" rx="11" ry="11" style="stroke:#181818;stroke-width:1.0;"/><path d="M396.6777,609.2234 L396.6777,607.0652 L404.0571,607.0652 L404.0571,609.2234 L401.5918,609.2234 L401.5918,617.3001 L404.0571,617.3001 L404.0571,619.4583 L396.6777,619.4583 L396.6777,617.3001 L399.1431,617.3001 L399.1431,609.2234 Z " fill="#000000"/><text fill="#000000" font-family="sans-serif" font-size="14" font-style="italic" lengthAdjust="spacing" textLength="59" x="420.75" y="618.2493">Message</text><line style="stroke:#181818;stroke-width:0.5;" x1="335" x2="533" y1="628.9583" y2="628.9583"/><line style="stroke:#181818;stroke-width:0.5;" x1="335" x2="533" y1="636.9583" y2="636.9583"/><text fill="#000000" font-family="sans-serif" font-size="14" font-style="italic" lengthAdjust="spacing" textLength="116" x="340" y="654.4934">Time() time.Time</text><text fill="#000000" font-family="sans-serif" font-size="14" font-style="italic" lengthAdjust="spacing" textLength="188" x="340" y="670.9817">Network() network.Network</text><text fill="#000000" font-family="sans-serif" font-size="14" font-style="italic" lengthAdjust="spacing" textLength="111" x="340" y="687.47">Provider() string</text><text fill="#000000" font-family="sans-serif" font-size="14" font-style="italic" lengthAdjust="spacing" textLength="69" x="340" y="703.9583">Data() any</text></g><!--class EventBus--><g id="elem_EventBus"><rect codeLine="39" fill="#F1F1F1" height="113.9531" id="EventBus" rx="2.5" ry="2.5" style="stroke:#181818;stroke-width:0.5;" width="376" x="301" y="419.9583"/><ellipse cx="454.25" cy="435.9583" fill="#F1F1F1" rx="11" ry="11" style="stroke:#181818;stroke-width:1.0;"/><path d="M453.9834,437.0213 Q452.1323,436.3157 451.4766,435.5396 Q450.8208,434.7635 450.8208,433.4519 Q450.8208,431.7669 451.8999,430.804 Q452.979,429.8411 454.8633,429.8411 Q455.7183,429.8411 456.5732,430.0362 Q457.4282,430.2312 458.2666,430.6131 L458.2666,433.0037 Q457.478,432.4475 456.6646,432.157 Q455.8511,431.8665 455.0542,431.8665 Q454.166,431.8665 453.6929,432.2234 Q453.2197,432.5804 453.2197,433.2444 Q453.2197,433.7591 453.5642,434.0952 Q453.9087,434.4314 455.0044,434.8382 L456.0586,435.2366 Q457.5527,435.7845 458.2583,436.6892 Q458.9639,437.594 458.9639,438.972 Q458.9639,440.8479 457.8557,441.7735 Q456.7476,442.699 454.5063,442.699 Q453.585,442.699 452.6594,442.479 Q451.7339,442.2591 450.8706,441.8274 L450.8706,439.2957 Q451.8501,439.9929 452.7673,440.3333 Q453.6846,440.6736 454.5811,440.6736 Q455.4858,440.6736 455.9839,440.2627 Q456.4819,439.8518 456.4819,439.1131 Q456.4819,438.5569 456.1499,438.1377 Q455.8179,437.7185 455.187,437.4778 Z " fill="#000000"/><text fill="#000000" font-family="sans-serif" font-size="14" lengthAdjust="spacing" textLength="61" x="474.75" y="441.2493">EventBus</text><line style="stroke:#181818;stroke-width:0.5;" x1="302" x2="676" y1="451.9583" y2="451.9583"/><text fill="#000000" font-family="sans-serif" font-size="14" lengthAdjust="spacing" textLength="234" x="307" y="469.4934">observers map[string]ObserverSet</text><text fill="#000000" font-family="sans-serif" font-size="14" lengthAdjust="spacing" textLength="139" x="307" y="485.9817">jobs      chan struct{}</text><line style="stroke:#181818;stroke-width:0.5;" x1="302" x2="676" y1="492.9348" y2="492.9348"/><text fill="#000000" font-family="sans-serif" font-size="14" lengthAdjust="spacing" textLength="236" x="307" y="510.47">Subscribe(topic Topic, o Observer)</text><text fill="#000000" font-family="sans-serif" font-size="14" lengthAdjust="spacing" textLength="364" x="307" y="526.9583">Publish(ctx context.Context, topic Topic, m Message)</text></g><!--class EmptyBlockObserver--><g id="elem_EmptyBlockObserver"><rect codeLine="47" fill="#F1F1F1" height="64.4883" id="EmptyBlockObserver" rx="2.5" ry="2.5" style="stroke:#181818;stroke-width:0.5;" width="243" x="38.5" y="770.9083"/><ellipse cx="85.75" cy="786.9083" fill="#F1F1F1" rx="11" ry="11" style="stroke:#181818;stroke-width:1.0;"/><path d="M85.4834,787.9713 Q83.6323,787.2657 82.9766,786.4896 Q82.3208,785.7135 82.3208,784.4019 Q82.3208,782.7169 83.3999,781.754 Q84.479,780.7911 86.3633,780.7911 Q87.2183,780.7911 88.0732,780.9862 Q88.9282,781.1812 89.7666,781.5631 L89.7666,783.9537 Q88.978,783.3975 88.1646,783.107 Q87.3511,782.8165 86.5542,782.8165 Q85.666,782.8165 85.1929,783.1734 Q84.7197,783.5304 84.7197,784.1944 Q84.7197,784.7091 85.0642,785.0452 Q85.4087,785.3814 86.5044,785.7882 L87.5586,786.1866 Q89.0527,786.7345 89.7583,787.6392 Q90.4639,788.544 90.4639,789.922 Q90.4639,791.7979 89.3557,792.7235 Q88.2476,793.649 86.0063,793.649 Q85.085,793.649 84.1594,793.429 Q83.2339,793.2091 82.3706,792.7774 L82.3706,790.2457 Q83.3501,790.9429 84.2673,791.2833 Q85.1846,791.6236 86.0811,791.6236 Q86.9858,791.6236 87.4839,791.2127 Q87.9819,790.8018 87.9819,790.0631 Q87.9819,789.5069 87.6499,789.0877 Q87.3179,788.6685 86.687,788.4278 Z " fill="#000000"/><text fill="#000000" font-family="sans-serif" font-size="14" lengthAdjust="spacing" textLength="140" x="106.25" y="792.1993">EmptyBlockObserver</text><line style="stroke:#181818;stroke-width:0.5;" x1="39.5" x2="280.5" y1="802.9083" y2="802.9083"/><text fill="#000000" font-family="sans-serif" font-size="14" lengthAdjust="spacing" textLength="231" x="44.5" y="820.4434">counter *prometheus.CounterVec</text><line style="stroke:#181818;stroke-width:0.5;" x1="39.5" x2="280.5" y1="827.3966" y2="827.3966"/></g><!--class ObservableTopic--><g id="elem_ObservableTopic"><rect codeLine="20" fill="#F1F1F1" height="80.9766" id="ObservableTopic" rx="2.5" ry="2.5" style="stroke:#181818;stroke-width:0.5;" width="147" x="569.5" y="613.4483"/><ellipse cx="584.5" cy="629.4483" fill="#EB937F" rx="11" ry="11" style="stroke:#181818;stroke-width:1.0;"/><path d="M588.1143,635.9483 L580.3945,635.9483 L580.3945,623.5552 L588.1143,623.5552 L588.1143,625.7134 L582.8433,625.7134 L582.8433,628.3863 L587.6162,628.3863 L587.6162,630.5445 L582.8433,630.5445 L582.8433,633.7901 L588.1143,633.7901 Z " fill="#000000"/><text fill="#000000" font-family="sans-serif" font-size="14" lengthAdjust="spacing" textLength="115" x="598.5" y="634.7393">ObservableTopic</text><line style="stroke:#181818;stroke-width:0.5;" x1="570.5" x2="715.5" y1="645.4483" y2="645.4483"/><text fill="#000000" font-family="sans-serif" font-size="14" lengthAdjust="spacing" textLength="94" x="575.5" y="662.9834">NewEVMBlock</text><text fill="#000000" font-family="sans-serif" font-size="14" lengthAdjust="spacing" textLength="87" x="575.5" y="679.4717">BlockInterval</text><line style="stroke:#181818;stroke-width:0.5;" x1="570.5" x2="715.5" y1="686.4248" y2="686.4248"/></g><!--reverse link Provider to RPCProvider--><g id="link_Provider_RPCProvider"><path d="M489,194.4283 C489,213.2883 489,216.9483 489,236.0983 " fill="none" id="Provider-backto-RPCProvider" style="stroke:#181818;stroke-width:1.0;stroke-dasharray:7.0,7.0;"/><polygon fill="none" points="489,176.4283,483,194.4283,495,194.4283,489,176.4283" style="stroke:#181818;stroke-width:1.0;"/></g><!--reverse link Observer to EmptyBlockObserver--><g id="link_Observer_EmptyBlockObserver"><path d="M160,721.1383 C160,743.2783 160,750.9083 160,770.5483 " fill="none" id="Observer-backto-EmptyBlockObserver" style="stroke:#181818;stroke-width:1.0;stroke-dasharray:7.0,7.0;"/><polygon fill="none" points="160,703.1383,154,721.1383,166,721.1383,160,703.1383" style="stroke:#181818;stroke-width:1.0;"/></g><!--reverse link RPCProvider to EventBus--><g id="link_RPCProvider_EventBus"><path codeLine="52" d="M601,316.4583 C649.91,316.4583 595.18,371.0483 551.4,416.2483 " fill="none" id="RPCProvider-backto-EventBus" style="stroke:#181818;stroke-width:1.0;"/><polygon fill="#181818" points="589,316.4583,595,320.4583,601,316.4583,595,312.4583,589,316.4583" style="stroke:#181818;stroke-width:1.0;"/></g><!--link EventBus to ObservableTopic--><g id="link_EventBus_ObservableTopic"><path codeLine="53" d="M678,504.4583 C722.76,504.4583 699.1501,558.7645 673.8701,602.7445 " fill="none" id="EventBus-to-ObservableTopic" style="stroke:#181818;stroke-width:1.0;"/><polygon fill="#181818" points="667.89,613.1483,674.348,609.9398,673.8701,602.7445,667.4122,605.953,667.89,613.1483" style="stroke:#181818;stroke-width:1.0;"/></g><!--link EventBus to ObservableTopic--><g id="link_EventBus_ObservableTopic"><path codeLine="55" d="M678,521.4583 C716.38,521.4583 698.0668,564.1102 675.0868,602.8102 " fill="none" id="EventBus-to-ObservableTopic-1" style="stroke:#181818;stroke-width:1.0;"/><polygon fill="#181818" points="668.96,613.1283,675.4628,610.0115,675.0868,602.8102,668.5841,605.927,668.96,613.1283" style="stroke:#181818;stroke-width:1.0;"/></g><!--link EventBus to Observer--><g id="link_EventBus_Observer"><path codeLine="54" d="M300,504.4583 C243.84,504.4583 209.0948,550.721 186.5548,594.081 " fill="none" id="EventBus-to-Observer" style="stroke:#181818;stroke-width:1.0;"/><polygon fill="#181818" points="181.02,604.7283,187.3365,601.2496,186.5548,594.081,180.2383,597.5597,181.02,604.7283" style="stroke:#181818;stroke-width:1.0;"/></g><!--link EventBus to Message--><g id="link_EventBus_Message"><path codeLine="56" d="M300,521.4583 C277.1,521.4583 310.4628,553.3984 353.5628,589.1384 " fill="none" id="EventBus-to-Message" style="stroke:#181818;stroke-width:1.0;"/><polygon fill="#181818" points="362.8,596.7983,360.7347,589.8893,353.5628,589.1384,355.6281,596.0474,362.8,596.7983" style="stroke:#181818;stroke-width:1.0;"/></g><!--SRC=[ZLFBRkCm33ollu97nsZy0JasBHOBRDkWANefUf2rJAADR1aIdJO8ykzBoV8ZJe6k3xP0ZeP33asADC9I2-VWJecj5MMIr4BknHQXjkQW_g25KmAWAaAx4H9XDOH_09n4uSWAIMTuner5jrkJ84obuGkVb2_RxmpGMcCdDrPDePNRtH-m8lUVLupMgjh-yd8EGgSpQ5WQ2pmd_69K8mcULyjUfIfhZQKlC57-YFHXx1u0glQKnuXF_XO5Ql0FKt8z7oiQ1-sJcS9nURHva7xRE2y0alCml0uHXjS5oTHAkX02mAefuId0HA7nnUTYoelxk7zzkDL6xcCadBksG-pSTJruypHKlHpReo6rEKv7V0CFw1mhcrrPkLMEITEiQt2A-8cqP2jGah6ENNXxvtKfaNROkBpFN2kC1Qy4lgWIcORua_lpL7zh3IE-C6ky7j5Y1Wx6ZV9tWWJdH7MSh4pNPokiSyz1AUgtbkcz6-uQoMF-CgYrHkv45NbEWHDWtHHEMbLW6Zo7uEuDcDwXMO357o2Lz0bNtbpSB0Uh9iBBcevXENhpHoj_kH3IDDu8o2wy2h5Nb86OgKT_psBXbpwRp_lv9DrXiUXxXFaycsxoDpYq8q2SmZSqOrISHV8F]--></g></svg>